<?xml version="1.0" encoding="UTF-8"?>
<!DOCTYPE svg PUBLIC "-//W3C//DTD SVG 1.1//EN" "http://www.w3.org/Graphics/SVG/1.1/DTD/svg11.dtd">
<svg xmlns="http://www.w3.org/2000/svg" version="1.1" width="200px" height="200px" style="shape-rendering:geometricPrecision; text-rendering:geometricPrecision; image-rendering:optimizeQuality; fill-rule:evenodd; clip-rule:evenodd" xmlns:xlink="http://www.w3.org/1999/xlink">
<g><path style="opacity:0.875" fill="#676767" d="M 28.5,-0.5 C 50.5,-0.5 72.5,-0.5 94.5,-0.5C 97.5,0.833333 100.5,0.833333 103.5,-0.5C 103.833,-0.5 104.167,-0.5 104.5,-0.5C 111.5,0.166667 118.5,0.833333 125.5,1.5C 89.1667,1.5 52.8333,1.5 16.5,1.5C 20.5,0.833333 24.5,0.166667 28.5,-0.5 Z"/></g>
<g><path style="opacity:1" fill="#050505" d="M 16.5,1.5 C 52.8333,1.5 89.1667,1.5 125.5,1.5C 129.042,1.18723 132.375,1.52056 135.5,2.5C 141.029,4.30288 146.696,5.96955 152.5,7.5C 154.153,7.6596 155.486,8.32627 156.5,9.5C 157.634,12.0338 159.634,13.3671 162.5,13.5C 163.5,13.8333 164.167,14.5 164.5,15.5C 164.81,17.1436 165.81,18.1436 167.5,18.5C 167.833,19.5 168.5,20.1667 169.5,20.5C 169.738,22.4044 170.738,23.7377 172.5,24.5C 172.427,26.0269 173.094,27.0269 174.5,27.5C 175.079,30.3311 176.412,32.6644 178.5,34.5C 178.171,37.2282 178.837,39.5615 180.5,41.5C 180.635,48.8625 180.302,56.1958 179.5,63.5C 178.326,64.5137 177.66,65.847 177.5,67.5C 176.326,68.5137 175.66,69.847 175.5,71.5C 174.094,71.9731 173.427,72.9731 173.5,74.5C 173.5,75.1667 173.167,75.5 172.5,75.5C 171.5,75.8333 170.833,76.5 170.5,77.5C 170.5,78.1667 170.167,78.5 169.5,78.5C 168.167,79.1667 167.167,80.1667 166.5,81.5C 164.973,81.427 163.973,82.0937 163.5,83.5C 160.9,84.4676 158.566,85.8009 156.5,87.5C 156.158,88.3382 155.492,88.6716 154.5,88.5C 152.447,88.4021 150.78,89.0687 149.5,90.5C 148.791,91.404 147.791,91.7373 146.5,91.5C 143.689,91.8257 141.022,92.6591 138.5,94C 139.563,95.1882 140.897,95.6882 142.5,95.5C 145.152,95.4095 147.485,96.0762 149.5,97.5C 152.518,99.3999 155.851,100.733 159.5,101.5C 162.241,101.707 164.574,102.707 166.5,104.5C 166.973,105.906 167.973,106.573 169.5,106.5C 171.411,107.075 173.078,108.075 174.5,109.5C 176.02,112.788 178.353,115.454 181.5,117.5C 181.738,119.404 182.738,120.738 184.5,121.5C 184.66,123.153 185.326,124.486 186.5,125.5C 186.723,129.162 187.723,132.495 189.5,135.5C 190.833,141.833 190.833,148.167 189.5,154.5C 188.076,156.515 187.41,158.848 187.5,161.5C 186.326,162.514 185.66,163.847 185.5,165.5C 184.326,166.514 183.66,167.847 183.5,169.5C 182.094,169.973 181.427,170.973 181.5,172.5C 180.094,172.973 179.427,173.973 179.5,175.5C 177.5,175.5 176.5,176.5 176.5,178.5C 176.5,179.167 176.167,179.5 175.5,179.5C 173.596,179.738 172.262,180.738 171.5,182.5C 169.77,183.026 168.436,184.026 167.5,185.5C 164.489,186.669 161.822,188.336 159.5,190.5C 157.046,192.06 154.38,193.06 151.5,193.5C 141.815,196.01 132.149,198.01 122.5,199.5C 84.8333,199.5 47.1667,199.5 9.5,199.5C 9.5,197.167 9.5,194.833 9.5,192.5C 17.2382,192.856 24.9048,192.356 32.5,191C 34.1712,189.157 35.1712,186.991 35.5,184.5C 35.5,184.167 35.5,183.833 35.5,183.5C 37.0395,181.162 37.7062,178.495 37.5,175.5C 38.4767,172.713 38.81,169.713 38.5,166.5C 40.3797,166.771 41.713,166.104 42.5,164.5C 54.3248,163.969 65.9914,163.303 77.5,162.5C 79.8568,162.663 82.1902,162.497 84.5,162C 85.056,161.617 85.3893,161.117 85.5,160.5C 88.716,160.655 91.3826,159.655 93.5,157.5C 95.2228,155.782 97.2228,154.449 99.5,153.5C 104.887,150.446 108.887,146.113 111.5,140.5C 115.743,139.319 120.076,138.652 124.5,138.5C 125.873,138.343 127.207,138.51 128.5,139C 127.027,139.71 126.36,140.876 126.5,142.5C 125.599,143.29 124.932,144.29 124.5,145.5C 124.5,146.167 124.5,146.833 124.5,147.5C 122.448,148.053 122.115,149.053 123.5,150.5C 123.833,150.5 124.167,150.5 124.5,150.5C 124.833,151.167 125.167,151.833 125.5,152.5C 122.038,153.482 118.371,153.815 114.5,153.5C 114.675,155.621 114.341,157.621 113.5,159.5C 111.735,162.123 111.068,165.123 111.5,168.5C 113.144,168.286 114.644,168.62 116,169.5C 116.698,168.309 117.531,167.309 118.5,166.5C 122.636,166.628 125.969,165.128 128.5,162C 130.5,161.667 132.5,161.333 134.5,161C 135.056,160.617 135.389,160.117 135.5,159.5C 136.552,159.649 137.552,159.483 138.5,159C 140.721,155.958 143.054,153.125 145.5,150.5C 147.848,150.408 149.514,149.408 150.5,147.5C 151.496,147.586 152.329,147.252 153,146.5C 153.495,144.527 153.662,142.527 153.5,140.5C 153.366,138.708 153.699,137.042 154.5,135.5C 156.04,133.162 156.706,130.495 156.5,127.5C 156.366,125.708 156.699,124.042 157.5,122.5C 159.191,119.336 158.191,117.336 154.5,116.5C 152.566,115.468 150.4,114.802 148,114.5C 141.2,115.405 134.367,115.739 127.5,115.5C 124.859,113.872 122.192,112.206 119.5,110.5C 116.916,109.952 115.916,108.285 116.5,105.5C 116.88,103.302 116.213,101.635 114.5,100.5C 114.715,98.8212 114.048,97.8212 112.5,97.5C 111.326,96.4863 110.66,95.153 110.5,93.5C 110.167,91.1667 108.833,89.8333 106.5,89.5C 104.808,87.7952 103.475,85.7952 102.5,83.5C 102.326,81.139 101.993,78.8056 101.5,76.5C 101.676,73.2727 102.343,70.2727 103.5,67.5C 108.032,67.8182 112.366,67.4849 116.5,66.5C 119.373,64.5185 122.373,64.1851 125.5,65.5C 126.635,67.2132 128.302,67.8799 130.5,67.5C 131.098,70.8211 132.765,71.8211 135.5,70.5C 136.919,69.5489 138.585,69.2155 140.5,69.5C 142.38,69.7709 143.713,69.1042 144.5,67.5C 147.352,67.6476 149.019,66.3143 149.5,63.5C 149.338,59.3507 147.338,56.684 143.5,55.5C 142.198,53.1782 140.198,51.8449 137.5,51.5C 136.5,51.1667 135.833,50.5 135.5,49.5C 135.027,48.0937 134.027,47.427 132.5,47.5C 132.167,46.5 131.5,45.8333 130.5,45.5C 130.5,43.5 129.5,42.5 127.5,42.5C 126.833,41.1667 125.833,40.1667 124.5,39.5C 124.446,37.368 123.446,36.0347 121.5,35.5C 120.856,32.856 119.189,31.1894 116.5,30.5C 115.738,28.7376 114.404,27.7376 112.5,27.5C 111.855,25.1737 110.522,23.507 108.5,22.5C 108.027,21.0937 107.027,20.427 105.5,20.5C 103.346,17.7545 103.013,14.7545 104.5,11.5C 103.081,10.5489 101.415,10.2155 99.5,10.5C 97.9826,10.5106 96.8159,11.1772 96,12.5C 94.4677,16.2974 92.3011,19.6307 89.5,22.5C 89.1583,23.3382 88.4916,23.6716 87.5,23.5C 85.6203,23.2291 84.287,23.8958 83.5,25.5C 83.1583,26.3382 82.4916,26.6716 81.5,26.5C 80.5,26.8333 79.8333,27.5 79.5,28.5C 79.1667,29.5 78.5,30.1667 77.5,30.5C 75.0178,31.6627 73.6845,33.6627 73.5,36.5C 69.9725,39.4234 66.3059,42.09 62.5,44.5C 60.9731,44.427 59.9731,45.0937 59.5,46.5C 59.1583,47.3382 58.4916,47.6716 57.5,47.5C 53.4399,46.8482 51.4399,48.5149 51.5,52.5C 54.285,51.9162 55.9517,52.9162 56.5,55.5C 55.5,55.8333 54.8333,56.5 54.5,57.5C 53.4206,59.543 51.754,60.8763 49.5,61.5C 47.8008,61.3398 46.1341,61.5065 44.5,62C 43.2264,62.9772 43.2264,63.8106 44.5,64.5C 45.7653,65.4793 47.0986,66.4793 48.5,67.5C 48.1373,68.1835 47.8039,68.8501 47.5,69.5C 46.205,70.4884 44.8717,71.4884 43.5,72.5C 40.782,74.3817 40.1153,76.7151 41.5,79.5C 41.1788,81.0481 40.1788,81.7148 38.5,81.5C 38.2852,83.1788 38.9519,84.1788 40.5,84.5C 40.8333,84.5 41.1667,84.5 41.5,84.5C 43.8568,84.3367 46.1902,84.5034 48.5,85C 47.944,85.3826 47.6107,85.8826 47.5,86.5C 46.0646,87.0965 44.398,87.0965 42.5,86.5C 41.325,86.281 40.325,86.6143 39.5,87.5C 39.9569,88.2975 40.6236,88.6309 41.5,88.5C 42.1834,90.1765 43.5168,90.8432 45.5,90.5C 45.5,91.5 45.5,92.5 45.5,93.5C 45.1583,94.3382 44.4916,94.6716 43.5,94.5C 42.3951,95.6005 41.0618,96.2671 39.5,96.5C 39.1667,96.5 38.8333,96.5 38.5,96.5C 37.596,97.209 37.2627,98.209 37.5,99.5C 41.1352,100.114 44.8019,100.448 48.5,100.5C 48.2964,102.685 47.6298,104.685 46.5,106.5C 46.5,107.167 46.1667,107.5 45.5,107.5C 44.1667,108.167 43.1667,109.167 42.5,110.5C 40.0359,112.399 37.3693,113.732 34.5,114.5C 34.5,115.167 34.1667,115.5 33.5,115.5C 32.5084,115.672 31.8417,115.338 31.5,114.5C 32.8328,99.1812 33.4994,83.5145 33.5,67.5C 33.4999,51.6631 33.1666,35.9964 32.5,20.5C 32.7234,15.9308 30.7234,12.9308 26.5,11.5C 25.5084,11.6716 24.8417,11.3382 24.5,10.5C 22.5615,8.83724 20.2282,8.17057 17.5,8.5C 14.8333,8.5 12.1667,8.5 9.5,8.5C 9.5,8.16667 9.5,7.83333 9.5,7.5C 11.678,5.43713 14.0114,3.43713 16.5,1.5 Z"/></g>
<g><path style="opacity:0.247" fill="#b5b5b5" d="M 135.5,2.5 C 141.675,2.78383 147.341,4.4505 152.5,7.5C 146.696,5.96955 141.029,4.30288 135.5,2.5 Z"/></g>
<g><path style="opacity:0.333" fill="#f3f3f3" d="M 9.5,7.5 C 9.5,7.83333 9.5,8.16667 9.5,8.5C 8.6136,9.7759 7.6136,9.7759 6.5,8.5C 7.32496,7.61432 8.32496,7.28099 9.5,7.5 Z"/></g>
<g><path style="opacity:0.839" fill="#707070" d="M 17.5,8.5 C 20.2282,8.17057 22.5615,8.83724 24.5,10.5C 21.9327,10.2785 19.5994,9.61185 17.5,8.5 Z"/></g>
<g><path style="opacity:0.812" fill="#878787" d="M 26.5,11.5 C 30.7234,12.9308 32.7234,15.9308 32.5,20.5C 31.2699,17.055 29.2699,14.055 26.5,11.5 Z"/></g>
<g><path style="opacity:0.075" fill="#a4a4a4" d="M 156.5,9.5 C 158.853,10.3403 160.853,11.6736 162.5,13.5C 159.634,13.3671 157.634,12.0338 156.5,9.5 Z"/></g>
<g><path style="opacity:0.106" fill="#b2b2b2" d="M 104.5,11.5 C 103.013,14.7545 103.346,17.7545 105.5,20.5C 103.561,19.9862 102.561,18.6528 102.5,16.5C 102.801,14.5784 103.467,12.9117 104.5,11.5 Z"/></g>
<g><path style="opacity:0.435" fill="#919191" d="M 164.5,15.5 C 166.19,15.8564 167.19,16.8564 167.5,18.5C 165.81,18.1436 164.81,17.1436 164.5,15.5 Z"/></g>
<g><path style="opacity:0.016" fill="#d2d2d2" d="M 167.5,18.5 C 168.833,18.5 169.5,19.1667 169.5,20.5C 168.5,20.1667 167.833,19.5 167.5,18.5 Z"/></g>
<g><path style="opacity:0.102" fill="#a7a7a7" d="M 99.5,10.5 C 97.3947,13.2889 95.5613,16.2889 94,19.5C 92.871,21.1412 91.371,22.1412 89.5,22.5C 92.3011,19.6307 94.4677,16.2974 96,12.5C 96.8159,11.1772 97.9826,10.5106 99.5,10.5 Z"/></g>
<g><path style="opacity:0.345" fill="#a9a9a9" d="M 105.5,20.5 C 107.027,20.427 108.027,21.0937 108.5,22.5C 106.973,22.573 105.973,21.9063 105.5,20.5 Z"/></g>
<g><path style="opacity:0.725" fill="#8d8d8d" d="M 169.5,20.5 C 171.262,21.2623 172.262,22.5956 172.5,24.5C 170.738,23.7377 169.738,22.4044 169.5,20.5 Z"/></g>
<g><path style="opacity:0.02" fill="#cbcbcb" d="M 87.5,23.5 C 86.4863,24.6737 85.153,25.3404 83.5,25.5C 84.287,23.8958 85.6203,23.2291 87.5,23.5 Z"/></g>
<g><path style="opacity:0.004" fill="#fefffe" d="M 180.5,24.5 C 181.833,25.1667 181.833,25.1667 180.5,24.5 Z"/></g>
<g><path style="opacity:0.333" fill="#aeaeae" d="M 108.5,22.5 C 110.522,23.507 111.855,25.1737 112.5,27.5C 110.124,26.7939 108.79,25.1273 108.5,22.5 Z"/></g>
<g><path style="opacity:0.455" fill="#919191" d="M 172.5,24.5 C 173.906,24.9731 174.573,25.9731 174.5,27.5C 173.094,27.0269 172.427,26.0269 172.5,24.5 Z"/></g>
<g><path style="opacity:0.004" fill="#fefffe" d="M 193.5,26.5 C 194.833,27.1667 194.833,27.1667 193.5,26.5 Z"/></g>
<g><path style="opacity:0.055" fill="#b9b9b9" d="M 81.5,26.5 C 81.5,27.8333 80.8333,28.5 79.5,28.5C 79.8333,27.5 80.5,26.8333 81.5,26.5 Z"/></g>
<g><path style="opacity:0.455" fill="#a5a5a5" d="M 112.5,27.5 C 114.404,27.7376 115.738,28.7376 116.5,30.5C 114.596,30.2624 113.262,29.2624 112.5,27.5 Z"/></g>
<g><path style="opacity:0.251" fill="#b0b0b0" d="M 174.5,27.5 C 176.588,29.3356 177.921,31.6689 178.5,34.5C 176.412,32.6644 175.079,30.3311 174.5,27.5 Z"/></g>
<g><path style="opacity:0.004" fill="#fefffe" d="M 191.5,29.5 C 192.833,30.1667 192.833,30.1667 191.5,29.5 Z"/></g>
<g><path style="opacity:0.004" fill="#fefffe" d="M 183.5,30.5 C 184.833,31.1667 184.833,31.1667 183.5,30.5 Z"/></g>
<g><path style="opacity:0.063" fill="#b2b2b2" d="M 77.5,30.5 C 76.5254,32.7952 75.1921,34.7952 73.5,36.5C 73.6845,33.6627 75.0178,31.6627 77.5,30.5 Z"/></g>
<g><path style="opacity:0.208" fill="#b1b1b1" d="M 116.5,30.5 C 119.189,31.1894 120.856,32.856 121.5,35.5C 119.089,34.483 117.422,32.8163 116.5,30.5 Z"/></g>
<g><path style="opacity:0.004" fill="#fefffe" d="M 20.5,33.5 C 21.8333,34.1667 21.8333,34.1667 20.5,33.5 Z"/></g>
<g><path style="opacity:0.651" fill="#818181" d="M 121.5,35.5 C 123.446,36.0347 124.446,37.368 124.5,39.5C 123.026,38.5637 122.026,37.2303 121.5,35.5 Z"/></g>
<g><path style="opacity:0.353" fill="#a3a3a3" d="M 73.5,36.5 C 71.4918,41.3035 67.8251,43.9702 62.5,44.5C 66.3059,42.09 69.9725,39.4234 73.5,36.5 Z"/></g>
<g><path style="opacity:0.004" fill="#fefffe" d="M 104.5,38.5 C 105.833,39.1667 105.833,39.1667 104.5,38.5 Z"/></g>
<g><path style="opacity:0.314" fill="#b2b2b2" d="M 178.5,34.5 C 179.924,36.5145 180.59,38.8478 180.5,41.5C 178.837,39.5615 178.171,37.2282 178.5,34.5 Z"/></g>
<g><path style="opacity:0.22" fill="#cbcacb" d="M 124.5,39.5 C 125.833,40.1667 126.833,41.1667 127.5,42.5C 125.5,42.5 124.5,41.5 124.5,39.5 Z"/></g>
<g><path style="opacity:0.784" fill="#767676" d="M 127.5,42.5 C 129.5,42.5 130.5,43.5 130.5,45.5C 129.167,44.8333 128.167,43.8333 127.5,42.5 Z"/></g>
<g><path style="opacity:0.004" fill="#fefffe" d="M 81.5,43.5 C 82.8333,44.1667 82.8333,44.1667 81.5,43.5 Z"/></g>
<g><path style="opacity:0.016" fill="#c7c7c7" d="M 62.5,44.5 C 62.0269,45.9063 61.0269,46.573 59.5,46.5C 59.9731,45.0937 60.9731,44.427 62.5,44.5 Z"/></g>
<g><path style="opacity:0.004" fill="#fefffe" d="M 108.5,45.5 C 109.833,46.1667 109.833,46.1667 108.5,45.5 Z"/></g>
<g><path style="opacity:0.035" fill="#c0c0c0" d="M 130.5,45.5 C 131.5,45.8333 132.167,46.5 132.5,47.5C 131.167,47.5 130.5,46.8333 130.5,45.5 Z"/></g>
<g><path style="opacity:0.255" fill="#959595" d="M 57.5,47.5 C 56.0262,48.6751 54.3596,49.6751 52.5,50.5C 54.8333,51.1667 57.1667,51.8333 59.5,52.5C 58.8118,53.8549 57.8118,54.8549 56.5,55.5C 55.9517,52.9162 54.285,51.9162 51.5,52.5C 51.4399,48.5149 53.4399,46.8482 57.5,47.5 Z"/></g>
<g><path style="opacity:0.004" fill="#fefffe" d="M 80.5,48.5 C 81.8333,49.1667 81.8333,49.1667 80.5,48.5 Z"/></g>
<g><path style="opacity:0.388" fill="#9e9c9e" d="M 132.5,47.5 C 134.027,47.427 135.027,48.0937 135.5,49.5C 133.973,49.573 132.973,48.9063 132.5,47.5 Z"/></g>
<g><path style="opacity:0.514" fill="#b2b2b1" d="M 180.5,41.5 C 181.899,46.2528 182.565,51.0861 182.5,56C 181.718,58.6719 180.718,61.1719 179.5,63.5C 180.302,56.1958 180.635,48.8625 180.5,41.5 Z"/></g>
<g><path style="opacity:0.431" fill="#919191" d="M 137.5,51.5 C 140.198,51.8449 142.198,53.1782 143.5,55.5C 141.147,54.6597 139.147,53.3264 137.5,51.5 Z"/></g>
<g><path style="opacity:0.004" fill="#fefffe" d="M 69.5,53.5 C 70.8333,54.1667 70.8333,54.1667 69.5,53.5 Z"/></g>
<g><path style="opacity:0.024" fill="#c4c4c4" d="M 56.5,55.5 C 56.5,56.8333 55.8333,57.5 54.5,57.5C 54.8333,56.5 55.5,55.8333 56.5,55.5 Z"/></g>
<g><path style="opacity:0.502" fill="#8e8e8e" d="M 143.5,55.5 C 147.338,56.684 149.338,59.3507 149.5,63.5C 149.019,66.3143 147.352,67.6476 144.5,67.5C 146.118,66.5489 147.451,65.2156 148.5,63.5C 147.629,60.304 145.962,57.6373 143.5,55.5 Z"/></g>
<g><path style="opacity:0.494" fill="#7e7e7e" d="M 49.5,61.5 C 47.58,62.0652 45.9133,63.0652 44.5,64.5C 43.2264,63.8106 43.2264,62.9772 44.5,62C 46.1341,61.5065 47.8008,61.3398 49.5,61.5 Z"/></g>
<g><path style="opacity:0.514" fill="#b0b0b0" d="M 116.5,66.5 C 112.366,67.4849 108.032,67.8182 103.5,67.5C 103.783,66.7109 104.283,66.0442 105,65.5C 108.569,66.0201 112.402,66.3534 116.5,66.5 Z"/></g>
<g><path style="opacity:0.808" fill="#676767" d="M 125.5,65.5 C 127.553,65.4021 129.22,66.0687 130.5,67.5C 128.302,67.8799 126.635,67.2132 125.5,65.5 Z"/></g>
<g><path style="opacity:0.169" fill="#bebebe" d="M 179.5,63.5 C 179.771,65.3797 179.104,66.713 177.5,67.5C 177.66,65.847 178.326,64.5137 179.5,63.5 Z"/></g>
<g><path style="opacity:0.69" fill="#878787" d="M 44.5,64.5 C 47.4346,64.8322 49.9346,65.4989 52,66.5C 51.4893,68.4606 49.9893,69.4606 47.5,69.5C 47.8039,68.8501 48.1373,68.1835 48.5,67.5C 47.0986,66.4793 45.7653,65.4793 44.5,64.5 Z"/></g>
<g><path style="opacity:0.224" fill="#b5b5b5" d="M 144.5,67.5 C 143.713,69.1042 142.38,69.7709 140.5,69.5C 141.514,68.3263 142.847,67.6596 144.5,67.5 Z"/></g>
<g><path style="opacity:0.616" fill="#878787" d="M 130.5,67.5 C 131.922,68.925 133.589,69.925 135.5,70.5C 132.765,71.8211 131.098,70.8211 130.5,67.5 Z"/></g>
<g><path style="opacity:0.125" fill="#c4c4c4" d="M 177.5,67.5 C 177.771,69.3797 177.104,70.713 175.5,71.5C 175.66,69.847 176.326,68.5137 177.5,67.5 Z"/></g>
<g><path style="opacity:0.004" fill="#fefffe" d="M 193.5,71.5 C 194.833,72.1667 194.833,72.1667 193.5,71.5 Z"/></g>
<g><path style="opacity:0.122" fill="#c9c9c9" d="M 175.5,71.5 C 175.573,73.0269 174.906,74.0269 173.5,74.5C 173.427,72.9731 174.094,71.9731 175.5,71.5 Z"/></g>
<g><path style="opacity:0.027" fill="#cfcfcf" d="M 172.5,75.5 C 172.5,76.8333 171.833,77.5 170.5,77.5C 170.833,76.5 171.5,75.8333 172.5,75.5 Z"/></g>
<g><path style="opacity:0.549" fill="#969696" d="M 43.5,72.5 C 42.8333,74.8333 42.1667,77.1667 41.5,79.5C 40.1153,76.7151 40.782,74.3817 43.5,72.5 Z"/></g>
<g><path style="opacity:0.063" fill="#d2d2d2" d="M 169.5,78.5 C 169.5,80.5 168.5,81.5 166.5,81.5C 167.167,80.1667 168.167,79.1667 169.5,78.5 Z"/></g>
<g><path style="opacity:0.396" fill="#979797" d="M 41.5,79.5 C 42.404,80.209 42.7373,81.209 42.5,82.5C 40.0065,82.1307 39.3398,82.7973 40.5,84.5C 38.9519,84.1788 38.2852,83.1788 38.5,81.5C 40.1788,81.7148 41.1788,81.0481 41.5,79.5 Z"/></g>
<g><path style="opacity:0.114" fill="#b6b6b6" d="M 101.5,76.5 C 101.993,78.8056 102.326,81.139 102.5,83.5C 100.688,81.2866 100.355,78.9533 101.5,76.5 Z"/></g>
<g><path style="opacity:0.043" fill="#c5c5c5" d="M 166.5,81.5 C 166.027,82.9063 165.027,83.573 163.5,83.5C 163.973,82.0937 164.973,81.427 166.5,81.5 Z"/></g>
<g><path style="opacity:0.004" fill="#fefffe" d="M 171.5,82.5 C 172.833,83.1667 172.833,83.1667 171.5,82.5 Z"/></g>
<g><path style="opacity:0.004" fill="#fefffe" d="M 184.5,82.5 C 185.833,83.1667 185.833,83.1667 184.5,82.5 Z"/></g>
<g><path style="opacity:0.447" fill="#a9a9a9" d="M 41.5,84.5 C 43.9479,83.5269 46.6146,83.1936 49.5,83.5C 49.7148,85.1788 49.0481,86.1788 47.5,86.5C 47.6107,85.8826 47.944,85.3826 48.5,85C 46.1902,84.5034 43.8568,84.3367 41.5,84.5 Z"/></g>
<g><path style="opacity:0.161" fill="#b4b4b4" d="M 42.5,86.5 C 42.1667,87.1667 41.8333,87.8333 41.5,88.5C 40.6236,88.6309 39.9569,88.2975 39.5,87.5C 40.325,86.6143 41.325,86.281 42.5,86.5 Z"/></g>
<g><path style="opacity:0.184" fill="#a8a8a8" d="M 163.5,83.5 C 161.879,85.942 159.546,87.2753 156.5,87.5C 158.566,85.8009 160.9,84.4676 163.5,83.5 Z"/></g>
<g><path style="opacity:0.004" fill="#fefffe" d="M -0.5,87.5 C 0.833333,88.1667 0.833333,88.1667 -0.5,87.5 Z"/></g>
<g><path style="opacity:0.149" fill="#c4c4c4" d="M 32.5,20.5 C 33.1666,35.9964 33.4999,51.6631 33.5,67.5C 33.4994,83.5145 32.8328,99.1812 31.5,114.5C 32.492,83.2401 32.8254,51.9068 32.5,20.5 Z"/></g>
<g><path style="opacity:0.522" fill="#a0a0a0" d="M 106.5,89.5 C 108.833,89.8333 110.167,91.1667 110.5,93.5C 108.833,92.5 107.5,91.1667 106.5,89.5 Z"/></g>
<g><path style="opacity:0.263" fill="#a7a7a7" d="M 154.5,88.5 C 154.5,88.8333 154.5,89.1667 154.5,89.5C 152.883,90.038 151.216,90.3713 149.5,90.5C 150.78,89.0687 152.447,88.4021 154.5,88.5 Z"/></g>
<g><path style="opacity:0.004" fill="#00fffe" d="M 154.5,89.5 C 155.833,90.1667 155.833,90.1667 154.5,89.5 Z"/></g>
<g><path style="opacity:0.322" fill="#8e8e8e" d="M 41.5,88.5 C 43.4352,89.1495 45.4352,89.4828 47.5,89.5C 47.7709,91.3797 47.1042,92.713 45.5,93.5C 45.5,92.5 45.5,91.5 45.5,90.5C 43.5168,90.8432 42.1834,90.1765 41.5,88.5 Z"/></g>
<g><path style="opacity:0.224" fill="#afafaf" d="M 146.5,91.5 C 145.158,92.793 143.491,93.6264 141.5,94C 142.056,94.3826 142.389,94.8826 142.5,95.5C 140.897,95.6882 139.563,95.1882 138.5,94C 141.022,92.6591 143.689,91.8257 146.5,91.5 Z"/></g>
<g><path style="opacity:0.004" fill="#fefffe" d="M 17.5,95.5 C 18.8333,96.1667 18.8333,96.1667 17.5,95.5 Z"/></g>
<g><path style="opacity:0.004" fill="#fefffe" d="M 70.5,95.5 C 71.8333,96.1667 71.8333,96.1667 70.5,95.5 Z"/></g>
<g><path style="opacity:0.173" fill="#b7b7b7" d="M 43.5,94.5 C 43.0423,97.3091 41.7089,97.9758 39.5,96.5C 41.0618,96.2671 42.3951,95.6005 43.5,94.5 Z"/></g>
<g><path style="opacity:0.004" fill="#fefffe" d="M 69.5,97.5 C 70.8333,98.1667 70.8333,98.1667 69.5,97.5 Z"/></g>
<g><path style="opacity:0.729" fill="#858585" d="M 112.5,97.5 C 114.048,97.8212 114.715,98.8212 114.5,100.5C 113.599,99.7095 112.932,98.7095 112.5,97.5 Z"/></g>
<g><path style="opacity:0.004" fill="#fefffe" d="M 199.5,97.5 C 199.5,97.8333 199.5,98.1667 199.5,98.5C 198.83,98.0187 198.83,97.6853 199.5,97.5 Z"/></g>
<g><path style="opacity:0.522" fill="#999999" d="M 149.5,97.5 C 153.332,97.8816 156.665,99.2149 159.5,101.5C 155.851,100.733 152.518,99.3999 149.5,97.5 Z"/></g>
<g><path style="opacity:0.502" fill="#b0b0af" d="M 38.5,96.5 C 38.62,97.5862 39.2867,98.2528 40.5,98.5C 43.4863,99.4673 46.3196,99.8006 49,99.5C 50.0874,102.614 49.254,104.947 46.5,106.5C 47.6298,104.685 48.2964,102.685 48.5,100.5C 44.8019,100.448 41.1352,100.114 37.5,99.5C 37.2627,98.209 37.596,97.209 38.5,96.5 Z"/></g>
<g><path style="opacity:0.4" fill="#a4a4a4" d="M 114.5,100.5 C 116.213,101.635 116.88,103.302 116.5,105.5C 115.463,104.07 114.796,102.403 114.5,100.5 Z"/></g>
<g><path style="opacity:0.224" fill="#a9a9a9" d="M 166.5,104.5 C 168.027,104.427 169.027,105.094 169.5,106.5C 167.973,106.573 166.973,105.906 166.5,104.5 Z"/></g>
<g><path style="opacity:0.004" fill="#fefffe" d="M 180.5,105.5 C 181.833,106.167 181.833,106.167 180.5,105.5 Z"/></g>
<g><path style="opacity:0.004" fill="#fefffe" d="M 55.5,107.5 C 56.8333,108.167 56.8333,108.167 55.5,107.5 Z"/></g>
<g><path style="opacity:0.004" fill="#fefffe" d="M 5.5,109.5 C 6.83333,110.167 6.83333,110.167 5.5,109.5 Z"/></g>
<g><path style="opacity:0.086" fill="#b2b2b2" d="M 45.5,107.5 C 45.5,109.5 44.5,110.5 42.5,110.5C 43.1667,109.167 44.1667,108.167 45.5,107.5 Z"/></g>
<g><path style="opacity:0.004" fill="#fefffe" d="M 91.5,110.5 C 92.8333,111.167 92.8333,111.167 91.5,110.5 Z"/></g>
<g><path style="opacity:0.745" fill="#7e7e7e" d="M 119.5,110.5 C 122.192,112.206 124.859,113.872 127.5,115.5C 123.825,115.5 121.159,113.833 119.5,110.5 Z"/></g>
<g><path style="opacity:0.722" fill="#878787" d="M 174.5,109.5 C 177.573,111.569 179.906,114.236 181.5,117.5C 178.353,115.454 176.02,112.788 174.5,109.5 Z"/></g>
<g><path style="opacity:0.11" fill="#b3b3b3" d="M 42.5,110.5 C 42.5858,111.496 42.2524,112.329 41.5,113C 39.1409,114.537 36.8076,115.037 34.5,114.5C 37.3693,113.732 40.0359,112.399 42.5,110.5 Z"/></g>
<g><path style="opacity:0.004" fill="#fefffe" d="M 94.5,113.5 C 95.8333,114.167 95.8333,114.167 94.5,113.5 Z"/></g>
<g><path style="opacity:0.408" fill="#a9a9a9" d="M 31.5,114.5 C 31.8417,115.338 32.5084,115.672 33.5,115.5C 32.2918,116.782 30.9584,116.782 29.5,115.5C 29.9569,114.702 30.6236,114.369 31.5,114.5 Z"/></g>
<g><path style="opacity:0.796" fill="#818181" d="M 154.5,116.5 C 152.409,116.682 150.409,116.348 148.5,115.5C 143.647,117.266 138.813,117.933 134,117.5C 131.654,117.01 129.487,116.343 127.5,115.5C 134.367,115.739 141.2,115.405 148,114.5C 150.4,114.802 152.566,115.468 154.5,116.5 Z"/></g>
<g><path style="opacity:0.51" fill="#909090" d="M 154.5,116.5 C 158.191,117.336 159.191,119.336 157.5,122.5C 157.385,120.053 156.385,118.053 154.5,116.5 Z"/></g>
<g><path style="opacity:0.722" fill="#919191" d="M 181.5,117.5 C 183.262,118.262 184.262,119.596 184.5,121.5C 182.738,120.738 181.738,119.404 181.5,117.5 Z"/></g>
<g><path style="opacity:0.004" fill="#fefffe" d="M 103.5,123.5 C 104.833,124.167 104.833,124.167 103.5,123.5 Z"/></g>
<g><path style="opacity:0.059" fill="#d3d3d3" d="M 184.5,121.5 C 186.104,122.287 186.771,123.62 186.5,125.5C 185.326,124.486 184.66,123.153 184.5,121.5 Z"/></g>
<g><path style="opacity:0.004" fill="#fefffe" d="M 81.5,127.5 C 82.8333,128.167 82.8333,128.167 81.5,127.5 Z"/></g>
<g><path style="opacity:0.812" fill="#787878" d="M 186.5,125.5 C 188.277,128.505 189.277,131.838 189.5,135.5C 187.723,132.495 186.723,129.162 186.5,125.5 Z"/></g>
<g><path style="opacity:1" fill="#1f1f1f" d="M 142.5,132.5 C 142.5,131.833 142.5,131.167 142.5,130.5C 141.653,129.034 140.32,128.2 138.5,128C 143.333,126.834 145.167,128.667 144,133.5C 143.617,132.944 143.117,132.611 142.5,132.5 Z"/></g>
<g><path style="opacity:0.004" fill="#fefffe" d="M 148.5,129.5 C 149.833,130.167 149.833,130.167 148.5,129.5 Z"/></g>
<g><path style="opacity:0.004" fill="#fefffe" d="M 97.5,131.5 C 98.8333,132.167 98.8333,132.167 97.5,131.5 Z"/></g>
<g><path style="opacity:0.765" fill="#8e8d8d" d="M 142.5,132.5 C 143.117,132.611 143.617,132.944 144,133.5C 145.167,128.667 143.333,126.834 138.5,128C 140.32,128.2 141.653,129.034 142.5,130.5C 140.287,130.152 138.287,129.319 136.5,128C 139.431,126.09 142.431,126.09 145.5,128C 146.032,130.614 146.365,133.28 146.5,136C 145.584,136.374 144.75,136.874 144,137.5C 143.392,135.846 142.892,134.179 142.5,132.5 Z"/></g>
<g><path style="opacity:0.341" fill="#a7a7a7" d="M 156.5,127.5 C 156.706,130.495 156.04,133.162 154.5,135.5C 154.565,132.572 155.232,129.905 156.5,127.5 Z"/></g>
<g><path style="opacity:0.667" fill="#a3a3a3" d="M 126.5,142.5 C 126.36,140.876 127.027,139.71 128.5,139C 127.207,138.51 125.873,138.343 124.5,138.5C 127.332,136.334 130.166,136.334 133,138.5C 133.239,140.725 132.405,141.058 130.5,139.5C 128.84,140.172 127.507,141.172 126.5,142.5 Z"/></g>
<g><path style="opacity:0.012" fill="#cfcfcf" d="M 126.5,142.5 C 126.715,144.179 126.048,145.179 124.5,145.5C 124.932,144.29 125.599,143.29 126.5,142.5 Z"/></g>
<g><path style="opacity:0.616" fill="#868685" d="M 153.5,140.5 C 153.662,142.527 153.495,144.527 153,146.5C 152.329,147.252 151.496,147.586 150.5,147.5C 151.869,145.268 152.869,142.934 153.5,140.5 Z"/></g>
<g><path style="opacity:0.247" fill="#b6b6b6" d="M 124.5,147.5 C 123.89,148.391 123.557,149.391 123.5,150.5C 122.115,149.053 122.448,148.053 124.5,147.5 Z"/></g>
<g><path style="opacity:0.549" fill="#878787" d="M 150.5,147.5 C 149.514,149.408 147.848,150.408 145.5,150.5C 146.659,148.75 148.326,147.75 150.5,147.5 Z"/></g>
<g><path style="opacity:0.463" fill="#828282" d="M 111.5,140.5 C 108.887,146.113 104.887,150.446 99.5,153.5C 103.528,149.141 107.528,144.807 111.5,140.5 Z"/></g>
<g><path style="opacity:0.192" fill="#b2b2b2" d="M 125.5,152.5 C 125.167,151.833 124.833,151.167 124.5,150.5C 124.81,149.262 125.31,149.262 126,150.5C 126.692,151.437 126.525,152.103 125.5,152.5 Z"/></g>
<g><path style="opacity:0.004" fill="#fefffe" d="M 36.5,153.5 C 37.8333,154.167 37.8333,154.167 36.5,153.5 Z"/></g>
<g><path style="opacity:0.553" fill="#8b8b8b" d="M 145.5,150.5 C 143.054,153.125 140.721,155.958 138.5,159C 137.552,159.483 136.552,159.649 135.5,159.5C 138.183,155.827 141.516,152.827 145.5,150.5 Z"/></g>
<g><path style="opacity:0.012" fill="#c6c6c6" d="M 189.5,154.5 C 189.59,157.152 188.924,159.485 187.5,161.5C 187.41,158.848 188.076,156.515 189.5,154.5 Z"/></g>
<g><path style="opacity:0.004" fill="#fefffe" d="M 24.5,158.5 C 25.8333,159.167 25.8333,159.167 24.5,158.5 Z"/></g>
<g><path style="opacity:0.004" fill="#fefffe" d="M 72.5,158.5 C 73.8333,159.167 73.8333,159.167 72.5,158.5 Z"/></g>
<g><path style="opacity:0.643" fill="#727272" d="M 93.5,157.5 C 91.3826,159.655 88.716,160.655 85.5,160.5C 87.936,159.129 90.6027,158.129 93.5,157.5 Z"/></g>
<g><path style="opacity:0.706" fill="#7a7a7a" d="M 135.5,159.5 C 135.389,160.117 135.056,160.617 134.5,161C 132.5,161.333 130.5,161.667 128.5,162C 125.969,165.128 122.636,166.628 118.5,166.5C 120.54,165.058 122.873,164.058 125.5,163.5C 126.5,162.167 127.5,160.833 128.5,159.5C 130.823,160.672 133.156,160.672 135.5,159.5 Z"/></g>
<g><path style="opacity:0.875" fill="#707070" d="M 85.5,160.5 C 85.3893,161.117 85.056,161.617 84.5,162C 82.1902,162.497 79.8568,162.663 77.5,162.5C 79.9608,161.469 82.6275,160.802 85.5,160.5 Z"/></g>
<g><path style="opacity:0.278" fill="#989898" d="M 77.5,162.5 C 65.9914,163.303 54.3248,163.969 42.5,164.5C 45.4999,163.962 48.6665,162.962 52,161.5C 60.4149,162.483 68.9149,162.817 77.5,162.5 Z"/></g>
<g><path style="opacity:0.62" fill="#717171" d="M 113.5,159.5 C 112.908,162.127 112.575,164.794 112.5,167.5C 114.5,167.167 116.5,166.833 118.5,166.5C 117.531,167.309 116.698,168.309 116,169.5C 114.644,168.62 113.144,168.286 111.5,168.5C 111.068,165.123 111.735,162.123 113.5,159.5 Z"/></g>
<g><path style="opacity:0.161" fill="#c0c0c0" d="M 187.5,161.5 C 187.771,163.38 187.104,164.713 185.5,165.5C 185.66,163.847 186.326,162.514 187.5,161.5 Z"/></g>
<g><path style="opacity:0.671" fill="#7a7a7a" d="M 42.5,164.5 C 41.713,166.104 40.3797,166.771 38.5,166.5C 38.81,169.713 38.4767,172.713 37.5,175.5C 36.8562,172.684 36.5228,170.018 36.5,167.5C 37.9394,165.447 39.9394,164.447 42.5,164.5 Z"/></g>
<g><path style="opacity:0.192" fill="#bfbfbf" d="M 185.5,165.5 C 185.771,167.38 185.104,168.713 183.5,169.5C 183.66,167.847 184.326,166.514 185.5,165.5 Z"/></g>
<g><path style="opacity:0.004" fill="#fefffe" d="M 193.5,168.5 C 194.833,169.167 194.833,169.167 193.5,168.5 Z"/></g>
<g><path style="opacity:0.047" fill="#bdbdbd" d="M 183.5,169.5 C 183.573,171.027 182.906,172.027 181.5,172.5C 181.427,170.973 182.094,169.973 183.5,169.5 Z"/></g>
<g><path style="opacity:0.031" fill="#d4d4d4" d="M 181.5,172.5 C 181.573,174.027 180.906,175.027 179.5,175.5C 179.427,173.973 180.094,172.973 181.5,172.5 Z"/></g>
<g><path style="opacity:0.188" fill="#a9a9a9" d="M 179.5,175.5 C 178.833,176.833 177.833,177.833 176.5,178.5C 176.5,176.5 177.5,175.5 179.5,175.5 Z"/></g>
<g><path style="opacity:0.137" fill="#b3b3b3" d="M 175.5,179.5 C 174.738,181.262 173.404,182.262 171.5,182.5C 172.262,180.738 173.596,179.738 175.5,179.5 Z"/></g>
<g><path style="opacity:0.443" fill="#8d8d8d" d="M 37.5,175.5 C 37.7062,178.495 37.0395,181.162 35.5,183.5C 35.5651,180.572 36.2318,177.905 37.5,175.5 Z"/></g>
<g><path style="opacity:0.173" fill="#b7b7b7" d="M 171.5,182.5 C 170.965,184.446 169.632,185.446 167.5,185.5C 168.436,184.026 169.77,183.026 171.5,182.5 Z"/></g>
<g><path style="opacity:0.047" fill="#c7c7c7" d="M 167.5,185.5 C 165.516,188.164 162.849,189.831 159.5,190.5C 161.822,188.336 164.489,186.669 167.5,185.5 Z"/></g>
<g><path style="opacity:0.392" fill="#949494" d="M 35.5,184.5 C 35.1712,186.991 34.1712,189.157 32.5,191C 24.9048,192.356 17.2382,192.856 9.5,192.5C 9.5,194.833 9.5,197.167 9.5,199.5C 9.16667,199.5 8.83333,199.5 8.5,199.5C 8.5,196.833 8.5,194.167 8.5,191.5C 14.8421,191.666 21.1754,191.5 27.5,191C 29.2464,190.529 30.913,189.862 32.5,189C 33.0527,187.122 34.0527,185.622 35.5,184.5 Z"/></g>
<g><path style="opacity:0.141" fill="#b2b2b2" d="M 151.5,193.5 C 149.142,195.129 146.476,196.295 143.5,197C 139.301,197.528 135.301,198.361 131.5,199.5C 128.5,199.5 125.5,199.5 122.5,199.5C 132.149,198.01 141.815,196.01 151.5,193.5 Z"/></g>
</svg>
